/* XPM */
static char *result[] = {
/* columns rows colors chars-per-pixel */
"64 64 153 2 ",
"   c #3B2F1A",
".  c #3C301B",
"X  c #442E1B",
"o  c #51281A",
"O  c #5A241B",
"+  c #42331C",
"@  c #4C351D",
"#  c #43381F",
"$  c #54341D",
"%  c #59351E",
"&  c #53391E",
"*  c #5D3D1F",
"=  c #61221B",
"-  c #69221C",
";  c #7A271E",
":  c #633A1F",
">  c #403521",
",  c #443925",
"<  c #473C29",
"1  c #483D2B",
"2  c #5D3921",
"3  c #4D422A",
"4  c #5D512E",
"5  c #4D4333",
"6  c #4F4738",
"7  c #504739",
"8  c #544B3C",
"9  c #6E4221",
"0  c #674425",
"q  c #754422",
"w  c #7B4924",
"e  c #60552F",
"r  c #635731",
"t  c #645831",
"y  c #6A5F39",
"u  c #6C6036",
"i  c #574E42",
"p  c #584F42",
"a  c #5C5345",
"s  c #5C554A",
"d  c #615746",
"f  c #655C4C",
"g  c #695F4F",
"h  c #705E4A",
"j  c #635C53",
"k  c #7E7340",
"l  c #6B6254",
"z  c #6A645C",
"x  c #716758",
"c  c #766E5F",
"v  c #6C6760",
"b  c #6F6A61",
"n  c #736F6B",
"m  c #756D63",
"M  c #7B7365",
"N  c #777471",
"B  c #7A7775",
"V  c #7D7B79",
"C  c #8E241F",
"Z  c #824924",
"A  c #8B4D25",
"S  c #8E532E",
"D  c #965127",
"F  c #995527",
"G  c #9E5628",
"H  c #A05729",
"J  c #A7592A",
"K  c #AC5C2A",
"L  c #B05D2B",
"P  c #BB622C",
"I  c #C4672E",
"U  c #C66D36",
"Y  c #877B44",
"T  c #857D70",
"R  c #827E7B",
"E  c #8E8046",
"W  c #998D4E",
"Q  c #9F9552",
"!  c #A79953",
"~  c #8A8275",
"^  c #85807A",
"/  c #B18569",
"(  c #B38B71",
")  c #BCB162",
"_  c #C2B765",
"`  c #D9CB6F",
"'  c #DED174",
"]  c #EBDC77",
"[  c #ECDD78",
"{  c #858485",
"}  c #8A898C",
"|  c #969085",
" . c #9F988F",
".. c #8E8D92",
"X. c #908F94",
"o. c #929297",
"O. c #94959A",
"+. c #97989E",
"@. c #9B999C",
"#. c #BE9F8A",
"$. c #A09990",
"%. c #ADA89E",
"&. c #B7A496",
"*. c #9B9DA4",
"=. c #9E9FA8",
"-. c #9FA1AA",
";. c #AFAAA1",
":. c #A0A2AB",
">. c #A9A9AE",
",. c #B3AFA7",
"<. c #BBB4AE",
"1. c #A4A6B0",
"2. c #A7A9B2",
"3. c #A9ABB4",
"4. c #ACAEB9",
"5. c #AFB1BB",
"6. c #B3B4BD",
"7. c #BCB8B1",
"8. c #E0AE91",
"9. c #DBD4A4",
"0. c #B6B8C2",
"q. c #BBBCC3",
"w. c #BEC0CB",
"e. c #C2C1C6",
"r. c #C9C6C2",
"t. c #CAC9C8",
"y. c #D4D2CC",
"u. c #CCCDD5",
"i. c #CCCCD8",
"p. c #CFD0DC",
"a. c #D8D6D2",
"s. c #D3D4DD",
"d. c #D3D3D7",
"f. c #F9F5DB",
"g. c #D4D6E2",
"h. c #D8DAE5",
"j. c #DCDEEA",
"k. c #DFE1EC",
"l. c #E1E3ED",
"z. c #EDECEA",
"x. c #E6E5E2",
"c. c #F6EAE3",
"v. c #FBF9EC",
"b. c #E5E7F4",
"n. c #E6E8F5",
"m. c #EAEBF5",
"M. c #ECEDF8",
"N. c #F4F3F4",
"B. c #F8F8F7",
"V. c #F5F5FA",
"C. c #F6F8FB",
"Z. c #FDFDFD",
"A. c None",
/* pixels */
"A.A.A.A.A.A.A.A.A.A.A.A.A.A.A.A.A.A.A.A.A.A.A.A.A.A.A.A.A.A.A.A.A.A.A.A.A.A.A.A.A.A.A.A.A.A.A.A.A.A.. A.A.A.A.A.A.A.A.A.A.A.A.A.",
"A.A.A.A.A.A.A.A.A.A.A.A.A.A.A.A.A.A.A.A.A.A.A.A.A.A.A.A.A.A.A.A.A.A.A.A.A.A.A.A.A.A.A.A.A.A.A.A.A.A.. d . A.A.A.A.A.A.A.A.A.A.A.",
"A.A.A.A.A.A.A.A.A.A.A.A.A.A.A.A.A.A.A.A.A.A.A.A.A.A.A.A.A.A.A.A.A.A.A.A.A.A.A.A.A.A.A.A.A.A.A.A.A.A.A.. 8.. A.A.A.A.A.A.A.A.A.A.",
"A.A.A.A.A.A.A.A.A.A.A.A.A.A..   A.A.A.A.A.A.A.A.A.A.A.A.A.A.A.A.A.A.A.A.A.A.A.A.A.A.A.A.A.A.A.A.A.A.A.  . I . A.A.A.A.A.A.A.A.A.",
"A.A.A.A.A.A.A.A.A.A.A.A.A.A.    A.A.A.A.A.A.A.A.A.A.A.A.A.A.A.A.A.A.A.A.A.A.A.A.A.A.A.A.A.A.A.A.A.A.A.. . I I A.A.A.A.A.A.A.A.A.",
"A.A.A.A.A.A.A.A.A.A.A.A.A.. @   A.A.A.A.A.A.A.A.A.A.A.A.A.A.A.A.A.A.A.A.A.A.A.A.A.A.A.A.A.A.A.A.A.A.A.A.% w 9 . A.A.A.A.A.A.A.A.",
"A.A.A.A.A.A.A.A.A.A.A.A.A.  %   A.A.A.A.A.A.A.A.A.A.A.A.A.A.A.A.A.A.A.A.A.A.A.A.A.A.A.A.A.A.A.A.A.A.A.A.% % I . A.A.A.A.A.A.A.A.",
"A.A.A.A.A.A.A.A.A.A.A.A.. + %   A.A.A.A.A.A.A.A.A.A.A.A.A.A.A.A.A.A.A.A.A.A.A.A.A.A.A.A.A.A.A.A.A.A.A.A.$ &.. l A.A.A.A.A.A.A.A.",
"A.A.A.A.A.A.A.A.A.A.A..   2 : A.A.A.A.A.A.A.A.A.A.A.A.A.A.A.A.A.A.A.A.A.A.A.A.A.A.A.A.A.A.A.A.A.A.A.A.A.@ / I w A.A.A.A.A.A.A.A.",
"A.A.A.A.A.A.A.A.A.A.. I   % . A.A.A.A.A.A.A.A.A.A.A.A.A.A.A.A.A.A.A.A.A.A.A.A.A.A.A.A.A.A.A.A.A.A.A.A..   A I . . A.A.A.A.A.A.A.",
"A.A.A.A.A.A.A.A.A.A.c.  B.+ . A.A.A.A.A.A.A.A.A.A.A.A.A.A.A.A.A.A.A.A.A.A.A.A.A.A.A.A.A.A.A.A.A.A.A.A..   A P I   A.A.A.A.A.A.A.",
"A.A.A.A.A.A.A.A.A.. I & 2 A A.A.A.A.A.A.A.A.A.A.A.A.A.A.A.A.A.A.A.A.A.A.A.A.A.A.A.A.A.A.A.A.A.A.A.A.A.@ . A A Z A.A.A.A.A.A.A.A.",
"A.A.A.A.A.A.A.A.. . A   %   A.A.A.A.A.A.A.A.A.A.A.A.A.A.A.A.A.A.A.A.A.A.A.A.A.A.A.A.A.A.A.A.A.A.A.A.. A . A h <.A.A.A.A.A.A.A.A.",
"A.A.A.A.A.A.A.A.. A D Z.:   A.A.A.A.A.A.A.A.A.A.A.A.A.A.A.A.A.A.A.A.A.A.A.A.A.A.A.A.A.A.A.A.A.A.A.A.@ : y.A I w A.A.A.A.A.A.A.A.",
"A.A.A.A.A.A.A.A.Z.A & #.% . A.A.A.A.A.A.A.A.A.A.A.A.A.A.A.A.A.A.A.A.A.A.A.A.A.A.A.    . . . A.A.A.. A $ Z.* A   A.A.A.A.A.A.A.A.",
"A.A.A.A.A.A.A.. I I . A %   A.A.A.A.A.A.A.A.A.A.A.A.A.A.A.A.A.A.A.A.A.A.A.A.A.  ~ j.  . x.1 . A.. Z %   ( P I   A.A.A.A.A.A.A.A.",
"A.A.A.A.A.A.A.. . A . Z % :   .     . A.A.A.A.A.A.A.A.A.A.A.A.A..   . . A.A.. Z.X.:.>   .   . + A A %   A A @   A.A.A.A.A.A.A.A.",
"A.A.A.A.A.A.A.. I D . A % % .   . 6..   . . %.t.$..   . .   } :.-.-.N.Z.;.  m -.6.. . % A Z A Z A % 2 3 D I   A.A.A.A.A.A.A.A.A.",
"A.A.A.A.A.A.A.. I w . Z .   . . :..   Z.:.:.b.s.. , e.n.:.5.b.b.b.b.-.s.1.. Z.q.  + % Z Z A Z A % $   S A &   A.A.A.A.A.A.A.A.A.",
"A.A.A.A.A.A.A.. U A 9 S .     -.:.. u.:.m.b.n.n.n.n.n.:.Z.b.b.n.b.+.b.b.B b.3.n.  % % % @   % % % @ Z.  I I   A.A.A.A.A.A.A.A.A.",
"A.A.A.A.A.A.A.A.. . .   % . . -.  :.l.n.n.n.n.b.n.n.n.s.b.b.n.n.b.n.n.0.-.b.-.B   % % % % % % $   Z.X G +   A.A.A.A.A.A.A.A.A.A.",
"A.A.A.A.A.A.A.. I I D   % . . -.:.g.:.  n.n.n.n.n.n.n.n.b.n.n.n.-.n.n.-.-.n.n.N               Z.A   D I I G A.A.A.A.A.A.A.A.A.A.",
"A.A.A.A.A.A.A.A.Z.I A   . . -.j :.b.  5 n.n.b.b.@.n.n.n.n.b.n.n.  n.n.:.=.b.0.-.    . % A A A . A D 0 q I . A.A.A.A.A.A.A.A.A.A.",
"A.A.A.A.A.A.A.A.. . . . .   . :.n.n.b.b.b.b.n.n.. n.b.n.n.n.n.n.%.n.n.-.-.n.+ -.    % % + . A A L I I Z.. A.A.A.A.A.A.A.A.A.A.A.",
"A.A.A.A.A.A.A.A.. A Z . . *.R n.n.M.6.b.b.n.n.n.:.n.b.n.b.n.b.b.Z.b.-.-.-.. C.-.-..   . A I J   I I F I   A.A.A.A.A.A.A.A.A.A.A.",
"A.A.A.A.A.A.A.A.A.  . .     l.b.-.b.n.b.n.n.n.n.b.b.Z.n.b.n.n.b.b.b.-.-.n   b.V.-..   A L I I A . * .     A.A.A.A.A.A.A.A.A.A.A.",
"A.A.A.A.A.A.A.A.A.. 7 m.  -.=.b.Z.b.b.b.n.n.n.n.b.b.Z.n.n.b.n.n.b.-.-.5 h.-.. n.2.    A A G q A Z       8 A.A.A.A.A.A.A.A.A.A.A.",
"A.A.A.A.A.A.A.A.A.. . . . Z.Z.-.:.n.b.b.n.b.b.n.b.b.N.j.b.n.b.b.-.*.-.b.n.n.-.. n.-., . . @ .   .     :.  . A.A.A.A.A.A.A.A.A.A.",
"A.A.A.A.A.A.A.A.A.A.A.. j.j.  . :.:.b.b.b.b.b.b.b.n.  n.b.n.b.:.} -.n.b.n.n.:.-.-.n.-.-.-.      . O.n.. . >   A.A.A.A.A.A.A.A.A.",
"A.A.A.A.A.A.A.A.A.A.A.:.:.6.6.n.  O.6.d.b.b.b.n.n.n.-.e.n.n.:.  h.n.n.b.n.n.:.-.6 n.0.Z.7 -.=.l.8 . . . . .   A.A.A.A.A.A.A.A.A.",
"A.A.A.A.A.A.A.A.A.A.. n.n.n.n.n.6.6.+   n.n.b.b.n.n.:.:.:.:.  b.n.b.n.n.b.1.4.:.-.. . + . . . . . . . .   . Z.  A.A.A.A.A.A.A.A.",
"A.A.A.A.A.A.A.A.A.. n.n.n.p 5 :.b.:.:.  n.h.n.n.n.:.-.:.  Z.b.b.b.n.b.b.b.M.Z.m.b.-.a . . 1 { . . . . :.-.. >   A.A.A.A.A.A.A.A.",
"A.A.A.A.A.A.A.A.A.  Z.c . + V.< :.:.-.  n.b.n.b.Z.Z.Z.Z.n.n.b.n.b.-.n.Z.Z.M . .  .Z.-.    =.. . 5 -.-.-.-.-.  . A.A.A.A.A.A.A.A.",
"A.A.A.A.A.A.A.A.A.A.. . .   . y.b.:.-.  b.n.b.n.n.n.b.n.n.n.n.n.b.n.Z.,.. . . . . . h.  . O.*.p.-.-.n.3.j -.a . A.A.A.A.A.A.A.A.",
"A.A.A.A.A.A.A.A.A.A.A.. . .     . b.-.  -.b.b.3.n.n.n.n.n.n.g.n.Z.Z.. . .   .       . v -.b.b.-.b.b.b.b.w.-.-.. A.A.A.A.A.A.A.A.",
"A.A.A.A.A.A.A.A.A.A.A.A.s   .   . . -.. V.3.b.b.-.b.n.n.i.-.n.C., . . . .   . .     -.-.b.n.. w.b.b.n.b.n.-.-.. A.A.A.A.A.A.A.A.",
"A.A.A.A.A.A.A.A.A.A.A.A.j   .   . .       Z.:.:.s p -.:.-.5.-..   . .   .       . . -.g.b.  *.b.-.b.b.b.b.-.-.. A.A.A.A.A.A.A.A.",
"A.A.A.A.A.A.A.A.A.A.A.A.a..     . X     . . . Z.Z.Z.u.:.... . .   .   . .       . a.-.n.b.    b.b.b.b.b.n.-.n.. A.A.A.A.A.A.A.A.",
"A.A.A.A.A.A.A.A.A.A.A.  N.. .   = O   Z.. :.      . . . . .   .     C Z.Z.      . . -.n.r.. *.b.b.n.b.k.n.-.n.. A.A.A.A.A.A.A.A.",
"A.A.A.A.A.A.A.A.A.A.A.. ^     - O     -.-.-.  .   . . .   .       C - C C O     p . -.n.. . :.b.b.b.n.n.n.n.n.A.A.A.A.A.A.A.A.A.",
"A.A.A.A.A.A.A.A.A.. z.R . k.        .       . .       . .       - O ; X   =     Z.*.1.b.    -.b.n.o.n.n.1.n.. A.A.A.A.A.A.A.A.A.",
"A.A.A.A.A.A.A.A.A.g Z.:.V   b.-.X M .   Z.  . o.8     .   .   . C C =   O o   T .   b.b..   -.-.5 n.n.-.. b.. A.A.A.A.A.A.A.A.A.",
"A.A.A.A.A.A.A.A.A.  . Z.        . f . . . N.. *.R -.>         . O = =         Z.  :.b.b.Z.  -.j -.-.-.  :.. A.A.A.A.A.A.A.A.A.A.",
"A.A.A.A.A.A.A.A.A.. b . n.      . < . . . C.. -.1 k.> -.  .       =         Z.    -.b.-.5 . z -.-.-.. . :.. A.A.A.A.A.A.A.A.A.A.",
"A.A.A.A.A.A.A.A.A.  :.:.n.p     .       > 6.+ . > s p.b.  n.    . . . . Z.a       b.:..   . .   .   . -.. A.A.A.A.A.A.A.A.A.A.A.",
"A.A.A.A.A.A.A.A.  Z.b.:.n.=.<     f , :.-.. | . -.    -.Z.. . n.b.b.b.1   =.:.:.:.h.Z.Z.  .         z . A.A.A.A.A.A.A.A.A.A.A.A.",
"A.A.A.A.A.A.A.A.  n.3.-.:.z -.  . b.b.-.} . C.. -.@.      Z.M.-.o.O.:.-.-.-.-.. :.n.n.b.. .     . -., . A.A.A.A.A.A.A.A.A.A.A.A.",
"A.A.A.A.A.A.A.A.. . b.-.:.-.{     -.u.. . . n..   1..         Z.n.n.n.n.n.b.+.x.. n.b.n.1   . 5 Z.. A.A.A.A.A.A.A.A.A.A.A.A.A.A.",
"A.A.A.A.A.A.A.A.A.  q.:.:.*.    b.. O.p.. .   g.  -.b.. =.:.:.=.. -.4..   2.Z.. h.n.b.b.Z.  r.  . A.A.A.A.A.A.A.A.A.A.A.A.A.A.A.",
"A.A.A.A.A.A.A.A.A.A.. s.8 . .   u.. .   }   . . b.} i.b.-.n.n.n.-.-.-.-.i     . b.b.3.b.Z.. A.A.A.A.A.A.A.A.A.A.A.A.A.A.A.A.A.A.",
"A.A.A.A.A.A.A.A.A.A.. . . .     . .     l.  . .   l.b.q.j 4.n.n.n.s t.i.p.2.-.b.b.Z.. .   A.A.A.A.A.A.A.A.A.A.A.A.A.A.A.A.A.A.A.",
"A.A.A.A.A.A.A.A.A.A.A.A.A.    d.          b.      n.k.n.n.g.n.n.n.n.n.n.n.:.l.b.  =.    A.A.A.A.A.A.A.A.A.A.A.A.A.A.A.A.A.A.A.A.",
"A.A.A.A.A.A.A.A.A.A.A.A.A.A.A.  1..     o.  n.-.-.n.n.n.n.n.n.n.b.n.n.n.n.:.3.-.6.Z.. A.A.A.A.A.A.A.A.A.A.A.A.A.A.A.A.A.A.A.A.A.",
"A.A.A.A.A.A.A.A.A.A.A.A.A.A.A..   -.    -.  . . .   1.n.n.j.n.n.Z.7.C.q.:.=.+     . A.A.A.A.A.A.A.A.A.A.A.A.A.A.A.A.A.A.A.A.A.A.",
"A.A.A.A.A.A.A.A.A.A.A.A.A.A.A.:.. b.< -.s . . . =.-.n.n.n.n.n.      .   . A.A.A.A.A.A.A.A.A.A.A.A.A.A.A.A.A.A.A.A.A.A.A.A.A.A.A.",
"A.A.A.A.A.A.A.A.A.A.A.A.A.A.A.  . . Z.N.7 5 -.:.  0.n.n.M.:.n.. *.-.. A.A.A.A.A.A.A.A.A.A.A.A.A.A.A.A.A.A.A.A.A.A.A.A.A.A.A.A.A.",
"A.A.A.A.A.A.A.A.A.A.A.A.A.A.A.+ u . . . .   . n.-.Z.b.0.C.n -.-.. . , A.A.A.A.A.A.A.A.A.A.A.A.A.A.A.A.A.A.A.A.A.A.A.A.A.A.A.A.A.",
"A.A.A.A.A.A.A.A.A.A.A.A.A.A.A.u + W z.] . ] ] .     f =.b.d j . Y   . A.A.A.A.A.A.A.A.A.A.A.A.A.A.A.A.A.A.A.A.A.A.A.A.A.A.A.A.A.",
"A.A.A.A.A.A.A.A.A.A.A.A.A.A.A.. . ) . t . ] 3   Y [       )   ) e k . A.A.A.A.A.A.A.A.A.A.A.A.A.A.A.A.A.A.A.A.A.A.A.A.A.A.A.A.A.",
"A.A.A.A.A.A.A.A.A.A.A.A.A.A.A.A.. t   ) . ] Q . 4 [ ] Z.f.)   ' . A.A.A.A.A.A.A.A.A.A.A.A.A.A.A.A.A.A.A.A.A.A.A.A.A.A.A.A.A.A.A.",
"A.A.A.A.A.A.A.A.A.A.A.A.A.A.A.A.A..   ) . [ ] . ) [ v.! Z.) . . A.A.A.A.A.A.A.A.A.A.A.A.A.A.A.A.A.A.A.A.A.A.A.A.A.A.A.A.A.A.A.A.",
"A.A.A.A.A.A.A.A.A.A.A.A.A.A.A.A.A.A.. e ~ _ Z.. ) ` 9.. . A.A.A.A.A.A.A.A.A.A.A.A.A.A.A.A.A.A.A.A.A.A.A.A.A.A.A.A.A.A.A.A.A.A.A.",
"A.A.A.A.A.A.A.A.A.A.A.A.A.A.A.A.A.A.    x ) $.  . . A.A.A.A.A.A.A.A.A.A.A.A.A.A.A.A.A.A.A.A.A.A.A.A.A.A.A.A.A.A.A.A.A.A.A.A.A.A.",
"A.A.A.A.A.A.A.A.A.A.A.A.A.A.A.A.A.A.A.A.    . A.A.A.A.A.A.A.A.A.A.A.A.A.A.A.A.A.A.A.A.A.A.A.A.A.A.A.A.A.A.A.A.A.A.A.A.A.A.A.A.A."
};
