/* XPM */
static char *result[] = {
/* columns rows colors chars-per-pixel */
"64 64 244 2 ",
"   c #1D1916",
".  c #261C0E",
"X  c #271C0E",
"o  c #271D0E",
"O  c #281C0E",
"+  c #291E0F",
"@  c #241B10",
"#  c #2B2110",
"$  c #2C2110",
"%  c #2D2211",
"&  c #2D2212",
"*  c #2E2212",
"=  c #2E2312",
"-  c #2E2412",
";  c #2F2412",
":  c #2F2413",
">  c #2A2015",
",  c #302412",
"<  c #302512",
"1  c #312512",
"2  c #302413",
"3  c #312413",
"4  c #302513",
"5  c #312613",
"6  c #322613",
"7  c #322713",
"8  c #312614",
"9  c #322614",
"0  c #322714",
"q  c #332714",
"w  c #332715",
"e  c #342715",
"r  c #332814",
"t  c #332817",
"y  c #352814",
"u  c #342815",
"i  c #352815",
"p  c #362914",
"a  c #372A15",
"s  c #342816",
"d  c #342916",
"f  c #352916",
"g  c #362916",
"h  c #362A16",
"j  c #372A16",
"k  c #372A17",
"l  c #392B15",
"z  c #392B17",
"x  c #3A2B17",
"c  c #392C15",
"v  c #392C17",
"b  c #3A2C16",
"n  c #3A2D16",
"m  c #3B2D16",
"M  c #3A2C17",
"N  c #3B2C17",
"B  c #3A2D17",
"V  c #3B2D17",
"C  c #3B2E16",
"Z  c #3B2E17",
"A  c #3C2D17",
"S  c #3C2E16",
"D  c #3C2E17",
"F  c #3D2F17",
"G  c #3E2F17",
"H  c #352A18",
"J  c #3A2D18",
"K  c #3B2D19",
"L  c #392D1B",
"P  c #3A2D1A",
"I  c #3C2E18",
"U  c #3D2E18",
"Y  c #3D2F18",
"T  c #3C2F19",
"R  c #3D2F19",
"E  c #3E2E18",
"W  c #3E2F19",
"Q  c #3F2F19",
"!  c #3F3017",
"~  c #3F3018",
"^  c #3E3019",
"/  c #3F311A",
"(  c #3D311E",
")  c #3F331E",
"_  c #362E22",
"`  c #382E22",
"'  c #342E29",
"]  c #3C3223",
"[  c #403018",
"{  c #403119",
"}  c #413119",
"|  c #413218",
" . c #423218",
".. c #433318",
"X. c #433219",
"o. c #433319",
"O. c #40321B",
"+. c #42331A",
"@. c #43331A",
"#. c #42331B",
"$. c #43331B",
"%. c #443219",
"&. c #443319",
"*. c #44331B",
"=. c #43341B",
"-. c #45341A",
";. c #45341B",
":. c #46341A",
">. c #46351B",
",. c #47351B",
"<. c #47361B",
"1. c #43351D",
"2. c #43341E",
"3. c #44351D",
"4. c #46351C",
"5. c #45361D",
"6. c #46361C",
"7. c #46361D",
"8. c #44361E",
"9. c #46361E",
"0. c #47371E",
"q. c #48361B",
"w. c #48371C",
"e. c #49371C",
"r. c #48371D",
"t. c #47381F",
"y. c #49381C",
"u. c #49381D",
"i. c #4A391D",
"p. c #48381E",
"a. c #49381E",
"s. c #4A381E",
"d. c #4A391E",
"f. c #4B391E",
"g. c #4A391F",
"h. c #4C3A1E",
"j. c #4C3A1F",
"k. c #4D3C1F",
"l. c #433520",
"z. c #413523",
"x. c #423523",
"c. c #433723",
"v. c #443721",
"b. c #423624",
"n. c #433624",
"m. c #473820",
"M. c #473924",
"N. c #4C3B20",
"B. c #4C3B21",
"V. c #4E3C20",
"C. c #4F3D21",
"Z. c #4E3E23",
"A. c #483B25",
"S. c #4C3D24",
"D. c #4D3E24",
"F. c #453A2A",
"G. c #503E22",
"H. c #503F24",
"J. c #524024",
"K. c #534125",
"L. c #514126",
"P. c #524227",
"I. c #544226",
"U. c #564427",
"Y. c #504028",
"T. c #544329",
"R. c #574528",
"E. c #54442B",
"W. c #53452C",
"Q. c #54452C",
"!. c #54452D",
"~. c #56472C",
"^. c #59472A",
"/. c #59472B",
"(. c #56482F",
"). c #584A2F",
"_. c #5C4B2E",
"`. c #5C4B2F",
"'. c #4B4131",
"]. c #4E4230",
"[. c #4F4330",
"{. c #4E4332",
"}. c #4E4435",
"|. c #4E4539",
" X c #574931",
".X c #584A31",
"XX c #594A31",
"oX c #5B4B30",
"OX c #594B32",
"+X c #5A4C32",
"@X c #5F4D31",
"#X c #5E4E31",
"$X c #5F4E31",
"%X c #5C4E33",
"&X c #5E4E33",
"*X c #5E4E34",
"=X c #514739",
"-X c #524838",
";X c #594D3A",
":X c #604F32",
">X c #625032",
",X c #635133",
"<X c #615134",
"1X c #615135",
"2X c #645234",
"3X c #655335",
"4X c #655435",
"5X c #665436",
"6X c #675537",
"7X c #685536",
"8X c #685637",
"9X c #675639",
"0X c #685638",
"qX c #695638",
"wX c #695738",
"eX c #6A5839",
"rX c #6B583A",
"tX c #6C5A3A",
"yX c #6C5A3B",
"uX c #6D5B3B",
"iX c #6E5B3B",
"pX c #6D5B3C",
"aX c #6E5B3C",
"sX c #6E5C3C",
"dX c #6E5D3C",
"fX c #705D38",
"gX c #705D3C",
"hX c #715F3E",
"jX c #74613F",
"kX c #766240",
"lX c #796542",
"zX c #796642",
"xX c #7A6643",
"cX c #7C6743",
"vX c #7D6844",
"bX c #7E6A44",
"nX c #806B46",
"mX c #826D47",
"MX c #846E48",
"NX c #877148",
"BX c #8E7848",
"VX c #927D49",
"CX c #A48D51",
"ZX c None",
/* pixels */
"ZXZXZXZXZXZXZXZXZXZXZXZXZXZXZXZXZXZXZXZXZXZXZXZXZXZXZX.XZXZXZXZXZXZXZXZXZXZXZXZXZXZXZXZXZXZX3XZXZXZXZXZXZXZXZXZXZXZXZXZXZXZXZXZX",
"ZXZXZXZXZXZXZXZXZXZXZXZXZXZXZXZXZXZXZXZXZXZXZXZXZXZXZXZXZXZXZXZXZXZX.XZXZXZXZXnXZXZXZXZXZXZXZXZXZXZXZXZXZXZXZXZXZXZXZXZXZXZXZXZX",
"ZXZXZXZXZXZXZXZXZXZXZXZXZXZXZXZXZXZXZXZXZXZXz.ZXZXZXZXZX] ' ZXZXCXz.ZXZX|.|.ZXZX+XZXZXZXZXZXZXZX3XZXZXZXZXZXZXZXZXZXZXZXZXZXZXZX",
"ZXZXZXZXZXZXZXZXZXZXZXZXZXZXZXZXZXZXZXZXZXZXZXZXsXsX1XMXCXsXCXz.VX|.|.|.' |.ZXZXsXZXZXZXZXZXZXZXsXZXZXZXZXZXZXZXZXZXZXZXZXZXZXZX",
"ZXZXZXZXZXZXZXZXZXZXZXZXZXZXZXZXZXZXZXZX3XsXuX3X.X.Xz.MXMXz.MXz.MXaXMX' ' ' |.|.|.Y.ZXZXZXZXZXZXZX_.ZXZXZXZXZXZXZXZXZXZXZXZXZXZX",
"ZXZXZXZXZXZXZXZXZXZXZXZXZXZXZXZXZXMXMXwXz.z.. . . . . . . . . . . . . z.3XsXsX' ' sX|.|.|.ZXZXZXZXsXZX;XZXZXZXZXZXZXZXZXZXZXZXZX",
"ZXZXZXZXZXZXZXZXZXZXZXZXZXZXZXMXpX3Xx.. . . . . . . . . . . . . . . . . . . . ).sXkXz.|.|.|.=XZXZXZXv.=XZXZXZXZXZXZXZXZXZXZXZXZX",
"ZXZXZXZXZXZXZXZXZXsXZXZXZXuX.X.X.X. . . . . . . . . . . . . . . . . . . . . . .  X8X.X' |.|.|.|.|.ZXqXZX|.ZXZXZXZXZXZXZXZXZXZXZX",
"ZXZXZXZXZXZXZXZXZXsXZXhXaX8X) . . . . . < ; . q . . . . ; ; ; ; . . . . . . . . . z.uXE.4X|.|.|.|.|.sXXX|.|.ZXZXZXZXZXZXZXZXZXZX",
"ZXZXZXZXZXZXZXZXsXZXMXsXz.. . . . . . ; ; ; + ; ; . . T ; ; ; v ; ; ; . . . . . . . . 3XsXsX' |.|.|.sXMXz.|.ZXZXZXZXZXZXZXZXZXZX",
"ZXZXZXZXZXZXZXMX3XMXyXz.. . . . . . . ; h ; ; ; ; . . R ; m m m = g ; . . . . . . . . . .XsXsX' ' ' |.MX.X|.|.ZXZXZXZXZXZXZXZXZX",
"ZXZXZXZXZXZXZXmXnXE.3X. . ; . . . . . ; m ; ; ; ; v . R ; m m m ; m ; . . . . . ; . . . . O 3XsX' ' ' @X3Xz.|.ZXZXZXZXZXZXZXZXZX",
"ZXZXZXZXZXZXbXMX3X.X. . 1 ; ; ; ; . . ; m ; ; ; ; ; . T ; m m m m m ; . ; . . . m ; ; . . . . wXsXsX' sX7XeX|.|.ZXZXZXZXZXZXZXZX",
"ZXZXZXZXZXZXz.0X.X. . . ; ; ; ; ; . . ; m m ; ; ; ; . R m m ^ m &.m ; . ; ; . . m m m ; ; . . . 6XsX3XsX3X<X{.|.ZXZXZXZXZXZXZXZX",
"ZXZXZXZXZXMXz..X. . ; ; ; ; m ; ; . . m m m ; m ; ; . . m &.&.m &.&.; . ; ; . . m m m ; m ; . . . Q.8X3XsXeXz.|.ZXZXZXZXZXZXZXZX",
"ZXZXZXCXBXz.fXMX- . U m ; m m ; ; 9 . m A m ; m ; m . . $.&.&.m &.&.; m ; ; . . m m &.; m m ; . . . .X3X3X3Xz.|.|.ZXZXZXZXZXZXZX",
"ZXZXZXsXCXz.z.z.. ; m m ; m m ; ; w . m &.&.} m ; m . * a p c b a.&.; m ; ; . . m &.h.N m m ; = . . . z.z.3X3X|.|.ZXZXZXZXZXZXZX",
"ZXZX3XiXCX!.MXlX. ; &.m m m m ; ; 5 . m &.&.m m ; I L             c ; m ; ; . . &.&.h.m m m m ; . . . |..XMX3X|.|.ZXZXZXZXZXZXZX",
"ZXZX3X3XCXz.sXz.. ; &.Z &.&.m ; ; , 4 m &.&.V m l                   b m ; ; ; . &.&.h.R m m m ; . . . . 3X3X2X'.|.ZXZXZXZXZXZXZX",
"ZXZXZXZXNXyX6X3X. ; &.h.&.&.m m ; . M m &.g.7 o.t                     / m ; ; . &.&.h.&.m m m ; - ; . . 5X3X.X' |.ZXZXZXZXZXZXZX",
"ZXZXZXZXZX.XjX3X. ; &.7.&.f.m m ; . . m <.h.&.~                         ! ; ; . &.&.h.&.m m m ; . ; . . MXsX.X' |.ZXZXZXZXZXZXZX",
"ZXZXZXZXZXwXxXwX. ; &.&.&.h.m m ; . . m s.h.! H                         2.m ; . &.&.h.&.m &.m ; m ; . . MXsX9X' |.|.ZXZXZXZXZXZX",
"ZXZXZXZXZX3XsX3X. ; >.&.h.h.m m ; . . m i.h.q.                          w.m ; . &.&.&.&.m &.m ; m ; . . MXsX5X' |.|.ZXZXZXZXZXZX",
"ZXZXZXZXZX3XsX.X. ; h.&.h.h.m m ; . . m &.h.6.                          h.O.; . &.&.&.; m &.m ; m ; . . MXsX3X' |.|.|.ZXZXZXZXZX",
"ZXZXZXZXZXsX3X.X. ; h.&.&.h.m m ; . . m &.&.r.                          h.q.; . &.h.I ; m &.m ; m ; q . sXsX.X' ' ' |.|.|.ZXZXZX",
"ZXZXZXZXZXsX3XrX. ^ h.&.&.&.#.m ; . . m :.&.q.L.                        h.q.; . &.h.&.m h.&.m m m ; ; . jX3Xz.' ' ' ' |.|.ZXZXZX",
"ZXZXZXZXZXsX3X.X. &.h.h.&.m &.m ; . . m h.&.h.h.h.                    S.h.m ; . &.h.&.h.h.&.D m m ; ; . sX3Xz.' ' |.ZXZXZXZXZXZX",
"ZXZXZXZXZXpX3XOXg &.h.h.&.m &.m ; . . m h.&.h.h.h.P.                h.h.h.m E . &.h.&.-.h.&.x m m ; ; . sX3Xz.' |.|.ZXZXZXZXZXZX",
"ZXZXZXZXsXMX3X3X; &.-.h.&.&.&.m ; . . m h.&.&.,Xh.h.J.P.H.      h.h.m.h.T.m ; . &.h.&.&.h.&.m m m ; ; . MX.Xz.' [.|.ZXZXZXZXZXZX",
"ZXZXZXZXsXMX3X3X; &.&.h.&.&.&.m ; . . m h.&.&.m 3X*.h.h.K.V.I.C.h.G.B.$Xm m ; . &.h.&.&.h.&.m m m m ; sXMXsXz.' ' |.ZXZXZXZXZXZX",
"ZXZXZXZXsXsX6X`.; &.&.h.&.h.&.m ; . &.m h.&.&.m m ^.3X3XK.R.I.U./.3Xm m m m ; . &.h.h.&.h.&.m m m m ; MX5X3Xz.' ' |.ZXZXZXZXZXZX",
"ZXZXZXZXtXz.3Xz.; T &.h.m h.&.m ; . &.W h.h.&.Q m m . . 3X3Xh.&.>X&.&.&.m m ; . &.h.h.&.&.&.w m m m ; MXsX.Xz.' ' |.ZXZXZXZXZXZX",
"ZXZXZXZX6XsX.Xz.; m &.h.m h.&.m ; . 1.Y h.; ; &.m m . . h.&.h.&.3X&.&.k.m m ; . &.h.h.&.&.&.; m ; m ; MXsX.Xz.' ' |.|.ZXZXZXZXZX",
"ZXZXZXZXuX3X.Xz.; m &.h.m h.&.m ; . m { h.&.m &.m m . . h.&.h.&.3X&.&.h.m m E . &.h.h.&.&.m m m ; m ; . sX3XoX' ' |.|.-XZXZXZXZX",
"ZXZXZXZXMX&X.Xx.; m &.h.m h.&.m ; . m &.h.5.&.&.m n . . &.&.h.&.3X&.&.h.m m m . &.h.h.Z.&.&.&.&.; m ; . MX0X.X' ' |.|.ZXZXZXZXZX",
"ZXZXZXZXuX.X.Xz.; &.&.h.m &.m m ; . m &.h.h.&.e.m ; . . &.h.=.&.eX&.&.&.m m m . &.h.h.h.&.&.p.&.; m m . MX5X.X' ' ' |.ZXZXZXZXZX",
"ZXZXZXZXsXMX.Xz.; &.&.m m &.m m ; . m &.h.h.&.h.m ; . . &.h.&.&.&.&.&.&.m m ; . &.h.h.h.&.&.h.&.; m m . MX3X#X' ' |.ZXZXZXZXZXZX",
"ZXZXZXZXsX3X.Xz.; &.&.m m m m . . . m &...h.&.h.m ; . . &.h.&.&.&.&.&.&.0 m ; . &.h.h.h.&.&.h.&.; m m ; 3X.X3X' ' |.ZXZXZXZXZXZX",
"ZXZXZXZX6X3X6Xz.&.&.&.m 8.m ; , . . m &.&.h.&.h.&.; . . &.h.&.m &.&.&.; f m ; . &.h.h.h.&.&.h.&.; m m ; sX%X.X' ' |.ZXZXZXZXZXZX",
"ZXZXZXZX3XZX3Xz.&.u.&.m &.m m ; . . m &.&.h.&.h.&.; . . &.h.@.&.&.&.m N m m ; . &.&.&.h.&.&.h.&.; m m ; sX6X.X' ' |.|.ZXZXZXZXZX",
"ZXZXZXZXMXyXpXn.&.h.&.m &.m m ; . . %.&.&.h.&.h.Q ; . . &.h.h.&.&.d ; i m m ; . &.&.&.h.&.&.h.&.&.m ; ; MXsX.X' ' |.|.ZXZXZXZXZX",
"ZXZXZXZXZX3XsXz.&.h.&.m &.m m ; . 3 &.&.&.u.&.h.m ; . . &.h.h.&.&.m ; m m ; ; . &.&.&.&.&.; h.&.&.m ; ; MXsX3XF.' |.|.ZXZXZXZXZX",
"ZXZXZXZXZXsXsXs &.h.;.m &.m I ; . x &.*.&.; &.h.m R . . &.h.h.&.r &.m m m ; . . &.&.&.&.&.; h.h.&.m m ; MXgXwXz.' ' |.].|.|.ZXZX",
"ZXZXZXZX3XsX3X; 0.5.h.m &.m m ; . m &.h.&.U &.h.m . . . &.&.h.&.; &.,.m m ; . . &.h.&.&.; ; h.&.&.m m ; MXMX3Xz.' ' |.' ' }.ZXZX",
"ZXZXZXMXMXsX.X; h.&.&.m &.m m ; . m &.h.&.&.h.&.m . . . &.&.h.&.; &.&.; m ; . . &.h.&.m ; s D &.h.m m ; MXMX.Xz.' ' ' ' ZXZXZXZX",
"ZXZXZXzXMX3Xz.; h.h.m &.&.m m ; . m &.h.&.&.h.&.m . . . m &.h.&.; h.&.; m ; . . &.h.&.&.&.m B &.h.m m . jXMX9Xz.' ' ' ' ZXZXZXZX",
"ZXZXZX3XsXz.ZXz h.h.&.h.&.&.m ; . m &.h.d.&.*.&.m . . m m &.&.&.8 h.4.; r u . . &.h.&.&.&.k x &.h.m m . pXsX.Xz.' ' ' |.ZXZXZXZX",
"ZXZXZXMXsX.Xg %.h.h.&.h.| ^ m ; . m &.h.h.&.&.&.m . . m m m ; ; m h.&.; m m . . o.h.&.&.a.; m 1.&.m m . sXsXaXz.' ' ' |.ZXZXZXZX",
"ZXZXZXdX8XK ; m N.h.[ &.m ; m 6 . m &.h.h.r.m ; . . . m m m m m &.&.&.; m m . . U h.&.m h.; m h.&.&.m . sXsX5Xz.' ' |.|.|.|.ZXZX",
"ZXZX3XMX3Xz.; m &.h.&.&.&.m v . . m &.h.h.h.&.&.m : . ; m V &.m &.m m ; m m . . G h.+.m h.; m h.&.&.m . sXsXz.z.' ' |.|.|.|.ZXZX",
"ZXZX3XMX3Xz.; m &.h.&.&.h.m m ; . m &.h.&.h.h.&.A ; . ; m E m &.&.&.&.; m m . . m &.m m h.A m &.m &.; . sXsX3Xz.' ' |.|.|.|.ZXZX",
"ZXZX3XMX8Xz.; m &.h.&.X.h.&.m ; . m &.w.&.h.h.D.&.; . ; m m m &.&.h.&.; m m . . m &.m m h.m m m m &.; . sXsX.XM.P ' |.|.|.ZXZXZX",
"ZXcX3X4X3Xz.; m &.h.&.3.m } m ; . m &.y.&.h.h.I &.; . ; m J m &.&.h.; m m m . . m &.m m h.&.m &.m m ; . sXsX.X.Xz.' |.|.|.ZXZXZX",
"ZXMX8XMX3Xz.; m m h.&.h.m m ; ; . m &.&.&.h.h.&.m ; . ; m ; m m m h.&.&.m m ; @ m m U m h.&. .&.m m V . sXsXsXsXz.' t.|.ZXZXZX' ",
"ZXMXZXsX3Xz.; ; m h.~ h.m ; ; ; . m &.&.&.h.h.&.m ; . ; m m m m &.h.j.&.m V ; * m m 6 m h.&.B &.m m m . vXsXMXsX.X' ' ZXZXZXZX' ",
"ZXZX3XsX3Xz.; ; m &.m h.m m ; ; . m &.&.( h.h.&.5 ; . ; m m m m &.h.h.&.m ; ; > m m 6 F h.&.; &.m m m ; . sX3XsX.X' ' ZX' ` ' ' ",
"ZXZX3XsX3XR ; m m &.U m ; m ; ; . m &.U ; h.&.&.; y , * ; m m m &.&.h.m ; ; ; . ; m m &.&.&.; m m m ; ; . MX3X5X.X_ ' ZXZXZXZXZX",
"ZXMXZXsX3XZX; &.m &.h.&.m ; ; ; . m &.m m C h.m ; m ; . ; m m m i &.d.m m ; . . & Y m &.&.&.; ; m m ; ; . MXsX*X.Xz.' ZXZXZXZXZX",
"ZXZXZXsX(.' ; q.-.&.h.&.m 9 ; . . m &.m m &.h.S ; ; % . ; m m ; = &.9.m m ; X . . ; m &.B &.; . m m ; ; . ZXsX.Xz.z.' ZXZXZXZXZX",
"ZXZXl.`.~.' m &.h.&.&.m m : ; . R m ;.m ; &.&.. 8 ; . . ; ; m 9 ; &.&.m ; . . . . e ; m ; m ; . ; ; ; ; . ZXsX3X.Xc.' ZXZXZXZXZX",
"3XZX3X.Xz.' ' g *.&.. . . ; ; . ; m &.m ; &.&.; m . . . ; # ; i o V &.m ; . . . . . ; m j m ; . ; ; ; . . ' sXW..X.XZXZXZXZXZXZX",
"ZXZX:Xz.' ' ZXZXZXZXZXZXZXZXZXZX' ' m ; ; m m m m ; ' ' ' ' ; $ . Z m m ; . . . . . ; 2 m m ; . ; . . . . ' sX.X3X.Xz.ZXZXZXZXZX",
"ZXZXZXZXZXZXZXZXZXZXZXZXZXZXZXZXZXZXZXZXZXZXZXZXZXZXZXZXZXZXZXZXZX' ' ' ' ' ' ' ' ' ' . ; ; ; . . . ' ' ' ' sX.Xz.A.z.ZXZXZXZXZX",
"ZXZXZXZXZXZXZXZXZXZXZXZXZXZXZXZXZXZXZXZXZXZXZXZXZXZXZXZXZXZXZXZXZXZXZXZXZXZXZXZXZXZXZXZXZXZXZXZXZXZXZXZXZXZX6X.Xb.z.' ZXZXZXZXZX"
};
