/* XPM */
static char *result[] = {
/* columns rows colors chars-per-pixel */
"64 64 134 2 ",
"   c #475E14",
".  c #52720F",
"X  c #456113",
"o  c #486511",
"O  c #476815",
"+  c #4D6A15",
"@  c #4C6519",
"#  c #4E6B1B",
"$  c #526D16",
"%  c #516D1A",
"&  c #4E7317",
"*  c #547416",
"=  c #597616",
"-  c #547A16",
";  c #5C7C17",
":  c #54731A",
">  c #59761B",
",  c #567A1B",
"<  c #5C7C1B",
"1  c #617D1C",
"2  c #4E6825",
"3  c #557422",
"4  c #5A7421",
"5  c #547821",
"6  c #5D7B22",
"7  c #5F7728",
"8  c #617F22",
"9  c #627F2C",
"0  c #667E34",
"q  c #5B8317",
"w  c #5E821B",
"e  c #5F8B1B",
"r  c #638417",
"t  c #63841D",
"y  c #68871D",
"u  c #658A1E",
"i  c #6A8C1E",
"p  c #718E1F",
"a  c #6B911E",
"s  c #71951E",
"d  c #73991F",
"f  c #5D8124",
"g  c #648422",
"h  c #698623",
"j  c #658A22",
"k  c #6B8C23",
"l  c #65852A",
"z  c #6A862A",
"x  c #668A2C",
"c  c #6C8C2A",
"v  c #718E24",
"b  c #718E2A",
"n  c #679124",
"m  c #6D9223",
"M  c #6E9825",
"N  c #6D9229",
"B  c #729524",
"V  c #799525",
"C  c #759A24",
"Z  c #7A9D25",
"A  c #73942B",
"S  c #79962C",
"D  c #769A2A",
"F  c #7A9D2B",
"G  c #6D8C33",
"H  c #6A843A",
"J  c #708F30",
"K  c #6D9230",
"L  c #6E903B",
"P  c #759432",
"I  c #789532",
"U  c #759933",
"Y  c #7B9C32",
"T  c #779639",
"R  c #7C9E39",
"E  c #77A125",
"W  c #7CA325",
"Q  c #7EA925",
"!  c #76A02A",
"~  c #7DA22B",
"^  c #7EA92B",
"/  c #7DA232",
"(  c #7FA830",
")  c #7CA23A",
"_  c #809F28",
"`  c #839D35",
"'  c #80A426",
"]  c #83A927",
"[  c #88A927",
"{  c #81A52C",
"}  c #89A72B",
"|  c #84AA2C",
" . c #89AD2C",
".. c #87B22F",
"X. c #8BB22D",
"o. c #90B22C",
"O. c #96B92E",
"+. c #82A432",
"@. c #85AA32",
"#. c #8AAD33",
"$. c #83A53A",
"%. c #89A33C",
"&. c #86A939",
"*. c #8BAC3A",
"=. c #90AD36",
"-. c #8CB234",
";. c #8DB33A",
":. c #91B433",
">. c #98B637",
",. c #93BA36",
"<. c #9BBA37",
"1. c #92B53B",
"2. c #9AB63B",
"3. c #94BA3C",
"4. c #99BB3D",
"5. c #9CC13D",
"6. c #8DAF40",
"7. c #93B543",
"8. c #95B943",
"9. c #9BBD44",
"0. c #93B24E",
"q. c #95BA48",
"w. c #9ABC4A",
"e. c #9EBF53",
"r. c #9DC144",
"t. c #9FC148",
"y. c #9EC355",
"u. c #A2C546",
"i. c #A8C747",
"p. c #A3CA47",
"a. c #A9CA46",
"s. c #A2C44B",
"d. c #ADC94E",
"f. c #B0CF52",
/* pixels */
"| / g / [ C | m @.B +.} P f ~ -. .C &.A ' l D B k t Y > W Z V w.k D m : T ' ;.c k ! A ~ { D A > ' ' A C R D j @ A > k { | B ' Y ",
"C D D m A ~ W B -.m Z A V ! ~ N B u W D k g ~ j A -.m m B M C ( B c V k c C @.~ ! ;.6 { +.B _ k C #.F V { g -.8./ F +.D h c a n ",
"* D F k > A g w | Z N x Z ..t V A k Y | g -.( ! ; z -.-.~ ~ { ~ +.u / { +.m M E k Y I > r.| { z E V ' @.B { V A v ;.1.i e | *.| ",
"W { u | D  .' | ~ @.A D F *.! N b k @.+.k Z +.@.~  .| A W Z Y Z A ;.P F ~ C { ~ D > ~ i * w Y u t F +...| * u.3.F D 8.' B B { A ",
"y.V C B { +.t @.C Y | ^ '  .{ A B < B @.{ ^ y q.k | #.+.| S -.B ` -.B g ^ B F i V ^ N c u k 6 D u j < M Y n W m f m { A F t Z ,.",
"k | W *.k f / F <.A c W 1.E F | < Q ' A V W S X.<.| F t @.v m k -.C F D F *.C F 7. .u s +.m U B 2.v E C S W > S @.M ;.= g 9.i E ",
"k B #.{ ' { W Y -.n ~ B @.B Z C A / D { D >.{ ~ W M B : F F D g t | A | k Z j *.@.~ <.S A V 3.S D | Z ~ u.v ~ k ~ u t d k W F B ",
"b o.B *.c #.: u C A N k ' -.V v B N F ! C j F * g k Z | V | F > ' #.@.k B W F V ~ @.B F A v Z D #.#.~ F Z D t F u k ' F _ A F Z ",
"W k ~ +.B :.* m u ' t ' F Q D t 2.{ V D B e W L @.m > D S Y C ) c > D F 1.) W #.#.c B F v A ' B ~ @./ ^ c V ~ M F s B | ' u W Y ",
"n B N S Y ] +.C C W { D + @.A Z { B B @.W $.B _ ~ #.A ~ 1.c F D C B S B A j | D 1.@.{ -.b +.W S ~ { | ~ c F N u F 7.i g : t F N ",
"F | W D w.Q i ; u A F ' C z | W B D F 1.c +.! h s { C u w Y x B A j D A -.| V Y ~ *.#.i +.+.U ! ~ ' < D A l B F i t Y A C v A i ",
"t B C Y ! Z k ~ D B F u c i B #.A W k #.Z ' D g | >  .D F t W k W 7.~ [ ~ : E S 9.k S F u I m D ~ Z A j F ~ B D C { ~ | W { l  .",
"C C > t l | + N D N a C j B D , Z ' Y m k h N | B B * D ] d N ~ &.| t , = y  .~ #.A Z X.| t D S ~ Z u W F ~ G g / A F F $ | @.W ",
"' h Z t 1 x k #.B 9.n Y g > V $.~ *.' B ~ F :.c W ! l 7.w.W A W t < | ~ n > W k _ v D W j V ~ 8.3 a * W F B ~ a +.h 1 i C s Z < ",
"~ D S +.D ' / j l -.B W ] n j M -.~ ! Z W t W ~ A u +.{ @.k / k +.. #.F j < B m 2.@.{ a u B Z C g | ! ] t t C S w C k ~ C B E B ",
"F M -.V / W W / w.m Z Z C k c A F D ~ C * A B u Z t F $.B A ;.~ M t u k i C * | k W z * B u k > ' ' n ; > u < Y [ B Z v X < w A ",
"D F W u m f ! ^ W B W W @.~ C -.B w 6 | w > F u M i ~ *.M V a +.< y D k k S a k k e C #.V F k B C ~ X.W y W ~ B Z F B j t A F > ",
"O | F ; D q & l *.| >.A 3.Z C +.s t ' i > w ' t ~ -.Z -.m ..3.B @.* F > u d 7.m k C w > W Z m Z N B V W F ~ B m ' B ' _ -.- ! < ",
"N - t.m F w M B W W -.u a B | C g : E #.C u -.] B g F u C s ' Z 1 F / N V B U ~ @.u N W ! i t W s C C Z j C :.m D y f E | S n l ",
"z i ~ N > F g j N ! F B ! ;.m w F e B b w B 5.E ' ~ W X.A g ' -.m *.A V A D A B | V 8.B W C Z | k m k | F W B B i E Z z Z i N e ",
"F C F +.i F S M k B Z j j g B ~ F k F F ~ +.:.' F t d W B W c X.V i D A i | ! { / A ~ { F B { F S m B Z ; z ; i +.Z / B S i Z : ",
"C k B k B Z +.i D D @.A | * , C F k ~ B W +.z A 4.Z | k t.F F B ! t l B ~ ) F :.F ~ 3.j :.u t >.# N E w i * C C { k 6 F t Z W ~ ",
"u * u k k Y F ' C ~ ' C w | { / B j i k { i s W #.D i ! < W D A #. .u h S Z * D t B B > @.~ C 1 @.B B F k ~  .k 6 t B ` C e B B ",
"< * k 5 C n ~ e W c -.V ,.W ~ ^ | S F ~ { C Z ~ 1.@.B +.F ! W F E T t s ~ ! ' Y % I n i B Z 1.k u s z ~ m C y ' Q t W C F V B W ",
"< Z ;. .4 3 V $ < C ~ V 3.| , C ' ' W p N m A D j U -.B Z Z W W @.W A Z -.{ B -.@.~ C j > u < * { : l F C n W a ' D B g { j F l ",
"B i F C 3.g u m > - M D | Q W A k u V B c g S Z P E W N C C j k ^ Z / V @.D W #.{ +.C k / k ~ +.# b ~ D < B < i Z A A W u S ~ W ",
"*.g Y F > | q c w k k Z Q t N ~ , A D -.W ~ B { k m B | m > F m C C E 1.3.~ u.| N { Z m B C i D -.*.~ @.M C t > #.D F n n | W A ",
"i * k Z t Q N A u > D i B Z N B N D 1.W < Z D W C ! B | F B * E ~ D B s W S g W -.+.% t u > F ' | a A | +.B -.M 3.+.S D | @.D Z ",
"8.k m C F w B u k j D e x A D B @.F t <.B t.F u D C { ' +.C E ^ t > ' A 6 ' -.u { V F B ~ B ,.! ~ } c o.c B W #.i k m V V % D k ",
"c W < ~ F Z | S t F , | S C $.W D B W W 3.u b k B Z Z A S ' ' a N A Y { C U k t v | 4.:.B C a.> u E Z >.:.m t T C t ~ A E W j V ",
"6 C E 1.! B V B D ;.W a D k D F N Z S M / 3.+.g B s a % C k V m w C 1.+ n ' < g A ' : B ' F g B F d  .~ ~ F w j 1 i W k u < , l ",
": d ` u / -.B s A F ~ W @.-.N D @.< N C #.A l t q Z n s W U i E A B ~ * F | B B C _ ] c +.1 A F j A g T m k | k k C | *.: *.Z F ",
"i k D l h #.| C j ~ u  .| ~ C , < 8 c A ~ { +.{ 3.V F S Z Z 3.-.i F 3.t D Z ! j  .i k k m ~ V / n u t C ~ W ~ @.C { F w { C C | ",
"a t E e.+.m g B D F { Q W k B B { B A F F g Y F N t c ! k W 8.E F j z S 3.A m c W > $ D i i ' Z V ~ W | ~ +.w Z k + B > D F m D ",
"B r D ~ 3.8 #.Z ~ { D @.{ S u w { +.t M D D V k w C k t Y ~ z ..# N ^ e S Z k P k w a C C #.A F x t 6 a B ~ j C *.~ B B * { N -.",
"A ' { B A J w 8 n &.' D u A D ( ^ S 4 , S ' C A m ~ F F | d Z N S -.B w # W Y m W m < j c F $.k k A t A W | > ; C ! Z V g C B Z ",
"k < t B N ~ F 8 m k { u Z / B D ~ f ( ( | u B F m @.N ,.b V u Z > C 3.Q W A t i 8 ~ +.B u Z A 3 Y N D Z / 6 j | X.t #.A z B p.W ",
" .j ' #.V A W { F 1 g j Q k W | Z ~ , ~ t A F u ~ *.*./ { _ Y W ! { u -.q F *.m N k +.t t X.< a | ; N k l / c Z W D D N Z z Q D ",
"^ - -.+.{ C ] N A S % { W C k @.j :.m ~ F ) k Y W V z 5.8 u.{ Z u { k V Q g i Z m W B u t F @.B A D w x @.@.~ A B Z F B : D * ~ ",
"~ B F F , , k m 7 z ~ C C - 3.C @.d ! U A B k +.Z u C B F B 1.@.k j 3.P t W #.' | < +.= m k t Z ;.@.C B +.V n Z W B N Q a @.A =.",
"K A t n 1 C Z B Y F #.k C W B  .@.D 1.j ^ ~ V g c g ' [ t.=. .#.t A I +./ t Y D w Z B u A u j B V F k S W F S j t l F s -.~ v > ",
"k +.i W k #.+.k C +.i ~ V l k l z ) / Y / % B n W ( ~ l A W *.g k a b _ B V > m M @.B j C i F | ;.^ F Z ^ u 8.< W t 8.k Z : g c ",
"' D ! g > 1 X.k 1.W Y ' B ! Q < < A , ~ ' 8 l 8 q A 2 c k 2 u d C ; A H % | { g A ! ! ,.i c   M f ..C { U c ~ B { 3 F C Z D 9.k ",
"~ ~ / F t w W A M t < +.( W ~ +.~ ~ C s.+.A * D Z ;.j g > #.i t k D @.Y m *.+.S ~ S  .| 1.t ! Q +.< s k F B j ~ , t D u B B m Z ",
"' W p c 6 F |  .D 6 { h *.t ' &.~ ' | ! F ;.N N m ;.u k ~ 6 B 6 h A z k C d.Z k B :.{ B B Z k A C Z A / D < F V W A ~ D >.a m a ",
"F i B B $ @.;.B Y ~ M ;.C w j B < F Y F k k ~ 3.j k j ~ U @.Y w * *.1 D : ' z ~ A :.B F { h ~ < V t Y w W ' W (  .B D 6.B A W c ",
"k Z W ] t Z | W j k D k i q.9.t :.N W ; @.> S B w F Z k +.V A W v A +.E { B m > c ' C B j v | m / k V ( c B t F A m F ' | Z *.W ",
"W v 7.X.! -.:.W -.B V { N B W F Z '  .# k k B :.Z F u i ,.~ E w.1 { k C A W Z F W ~ A C c < k W ~ ^ D Z F S ! k B ~ | ^ g C z Q ",
"W m a | @.N w { k n g @.B g @.p.~ v Z $.' j Z Z ~ ~ m C +.{ ~ V C F f Y M ! m ( j v Z M k / C t 6 C W | | u D t $ i W F u w m B ",
"B ~ W m ( +.C * ~ o.u j D F t +.A _ +.C A h G D u | < | +.Q Y A @.| ( @.| t.V W B *.D &.t Y D Z ! @.S W ~ / B b P | ' B v | j B ",
"m C ~ k *.q A #.u F A 2.Y F A F D F F k m N v S D ; *.*.| +.D +.v S | Z ' A * @.F B D w  .b C y j k 1.~ F 1 F #.S j Y < S u k W ",
"m ~ ;.~ D / B t W k D { ~ ~ | V O.-.B @.3.B / ~ 1 k F F v 1 B Y i A N W | { g I S m w V D j C { t F Z g g ^ -.M ^ C S V c { F ~ ",
"g t @.b k i c a F ~ F #.( / N Z A S C F g c F  .F C +.| #.*.U S , F Y c #.W ~ M c w { u 9.D C { n { B n D B D / X.~ S W U F u N ",
"F F A +.B l @.W ~ ' ^ v M ~ ( | j ' i ; W ' W | [ t M A ..: c Y &.+.* n k ~ z :.D Y V ~ v D u S m Y W ~ < C ~ i k W B =.6.c 6 x ",
"9 $ k +.t g C -.-.w ~ 4.< i ( ! ' ~ *.E ~ V #.c d ~ t W N Y c Y Y i v ! / Z B B A % < @.F B C 8 | B #.A % k ~ V ~ | W ' ; ' K j ",
"k C ' w.V K Z W A ~ j B A Z F F m W x z D F v D t C @.;.k ! S D B :.u l g u v k D +.E C Z } h C W B k ^ B  .Z B 3.] / ~ / m A C ",
"B F N Y l F k E D {  .k ~ a +.Z A k V k X.A { u A 2.< D h { m i * + i A V *.' V F u Z u ~ C { ! > j ~ ~ g B S k ~ k 8 v > B | v ",
"B D C N D [ Z 3.N F -.+.*.+.D C | -.@.! A k k k W B @.i ' ) 9.:.| k B k 6 3.M & S ;.t B -.i F A g W | Z s | D D 6 N I Y A ' B C ",
"B B ' ~ -.6 @.B i.-.| | < Z S @.~ | i -.> k B W > @.u A *.{ i -.F A A W < u M > V ! | : g 2.k { V N F W k | k i 1 r D % y u h C ",
"i A A Y @.&.' Z C W m w.k h u { :.S F @.-.b * v N ,.B k I 4 k A @.i &.w.^ W a D ~ W s w B h C 4 ~ i Q u +.*.' ! F +.t Z Z S S #.",
"t ' > ' # A B B | -.i k > D #.B k i ~ 6 f.< { X.N W Y Y u b | ;.C b B z +.m -.W M k ' B -.: Z t / D | D c ~ { = o S F Z ' C W 3.",
"#.Y ~ Y v | Q -.F = $.Y I $ | S 0.9. .A t B { C / ~ < @.+.: B +.B 3.3.1.M m t.F B Z :.q a U &.6 N C { 4.q.! B Z / A t ! A g | { ",
"u Z G D B F W %.k u @ w.F C | t W 0 C B B w @.F f 3.7.B g @.k @.~ %.k W 1.j -.| F B F B D | -.S Y 1.r.i W Z v  .i ,.D A S < M Y ",
"=.< B r C Z W C Z ~ { D Z w A @.D ~ C F i 1 ' A B B j k S < B *.k i -. .4 Q @.B #.B / _ Z D +.1 A ;.S { *.S ' F m A m 3.g a B z "
};
