/* XPM */
static char *_863df36768141acf047f8a9a5fb2af7Q1SWnw6TnHNoGSI2[] = {
/* columns rows colors chars-per-pixel */
"64 64 226 2 ",
"   c None",
".  c #020201",
"X  c #0B0501",
"o  c #050B01",
"O  c #0C0A03",
"+  c #02020B",
"@  c #09030B",
"#  c #0C0C0A",
"$  c #130C02",
"%  c #1B0C05",
"&  c #1B0C0A",
"*  c #170603",
"=  c #0C1303",
"-  c #0E1A01",
";  c #0D1409",
":  c #121404",
">  c #1D1506",
",  c #141B02",
"<  c #1C1804",
"1  c #1D150A",
"2  c #1D1C0C",
"3  c #10130F",
"4  c #020017",
"5  c #171A15",
"6  c #211707",
"7  c #221904",
"8  c #22140B",
"9  c #211A0A",
"0  c #2A1906",
"q  c #371E08",
"w  c #221610",
"e  c #1B2C03",
"r  c #1A240B",
"t  c #1A2606",
"y  c #1D2111",
"u  c #21280B",
"i  c #242606",
"p  c #342309",
"a  c #253403",
"s  c #2A3504",
"d  c #2B340B",
"f  c #2D3D0C",
"g  c #263808",
"h  c #323E06",
"j  c #292414",
"k  c #372814",
"l  c #2C3A13",
"z  c #293616",
"x  c #353715",
"c  c #1A2226",
"v  c #2A333A",
"b  c #2D3033",
"n  c #452A09",
"m  c #573408",
"M  c #442E15",
"N  c #493516",
"B  c #533314",
"V  c #543A14",
"C  c #5B3B14",
"Z  c #593C1C",
"A  c #543A1B",
"S  c #633D18",
"D  c #483623",
"F  c #603A22",
"G  c #2E430B",
"H  c #364B08",
"J  c #355305",
"K  c #3C5406",
"L  c #365902",
"P  c #3B5803",
"I  c #3B550B",
"U  c #3B580B",
"Y  c #37570E",
"T  c #384915",
"R  c #3B5514",
"E  c #365411",
"W  c #394420",
"Q  c #435A03",
"!  c #44550D",
"~  c #44590C",
"^  c #485B0A",
"/  c #454C15",
"(  c #5D4212",
")  c #5D411D",
"_  c #57401E",
"`  c #445414",
"'  c #445814",
"]  c #445419",
"[  c #4A5816",
"{  c #515D1B",
"}  c #585917",
"|  c #6B470D",
" . c #65431B",
".. c #69461B",
"X. c #6D4B1D",
"o. c #644513",
"O. c #734D1E",
"+. c #794516",
"@. c #6D5119",
"#. c #7A511E",
"$. c #75571E",
"%. c #744A03",
"&. c #4A6305",
"*. c #576B0C",
"=. c #596B0D",
"-. c #546A07",
";. c #5B790C",
":. c #4B6515",
">. c #596C12",
",. c #566416",
"<. c #5A7617",
"1. c #62750B",
"2. c #616617",
"3. c #637313",
"4. c #657817",
"5. c #747E17",
"6. c #534B26",
"7. c #4C4A2D",
"8. c #684C27",
"9. c #744E24",
"0. c #6A5525",
"q. c #755122",
"w. c #7C5323",
"e. c #735129",
"r. c #785232",
"t. c #5A6B25",
"y. c #5B7426",
"u. c #547524",
"i. c #767B23",
"p. c #7C7934",
"a. c #656E2C",
"s. c #393D45",
"d. c #363C45",
"f. c #202A46",
"g. c #3B4048",
"h. c #565B5C",
"j. c #4F5658",
"k. c #4F5765",
"l. c #57647B",
"z. c #5F686E",
"x. c #656C6D",
"c. c #70707D",
"v. c #804C1E",
"b. c #9A6E13",
"n. c #A57D1D",
"m. c #835926",
"M. c #865C29",
"N. c #8E5C21",
"B. c #885A33",
"V. c #925F26",
"C. c #8B622D",
"Z. c #976526",
"A. c #896E3B",
"S. c #986A35",
"D. c #84743A",
"F. c #897125",
"G. c #A46B33",
"H. c #AD6E2F",
"J. c #896E45",
"K. c #847042",
"L. c #B07247",
"P. c #7C8E0B",
"I. c #74850D",
"U. c #7D9202",
"Y. c #7D910B",
"T. c #76950C",
"R. c #768C14",
"E. c #7B8E14",
"W. c #76821C",
"Q. c #7B8D1B",
"!. c #79861A",
"~. c #769113",
"^. c #7A9113",
"/. c #7C911C",
"(. c #6B8209",
"). c #7C8524",
"_. c #7E8D22",
"`. c #768423",
"'. c #74842A",
"]. c #818F07",
"[. c #81910B",
"{. c #828E1B",
"}. c #898A1F",
"|. c #83901B",
" X c #829316",
".X c #8AA719",
"XX c #92A815",
"oX c #A5BF10",
"OX c #828E21",
"+X c #848E2C",
"@X c #849024",
"#X c #83902C",
"$X c #858E33",
"%X c #808732",
"&X c #869032",
"*X c #B88633",
"=X c #9CB02F",
"-X c #AAB82D",
";X c #CD8D18",
":X c #D88617",
">X c #D19015",
",X c #D59D2D",
"<X c #CEA02A",
"1X c #E3A836",
"2X c #B28044",
"3X c #DFB951",
"4X c #E2BE48",
"5X c #E7BA56",
"6X c #C7B262",
"7X c #E5BB61",
"8X c #DFC14B",
"9X c #E3C04A",
"0X c #797F87",
"qX c #7B8287",
"wX c #81868C",
"eX c #858C93",
"rX c #8D9497",
"tX c #979F9F",
"yX c #979FA5",
"uX c #9DA3A8",
"iX c #A3A9B1",
"pX c #A9B1B6",
"aX c #CDC4AC",
"sX c #BABFC1",
"dX c #DEE3E8",
"fX c #FEF8FD",
/* pixels */
"                                                                                                                                ",
"                                                                                                                                ",
"                                                                                                                                ",
"                                                                                                                                ",
"                                                                                                                                ",
"                                                                                                                                ",
"                                                                                                                                ",
"                                                                                                                                ",
"                                                                                                                                ",
"                                                    . . . # $ . . .                                                             ",
"                                                . S Z.O.k 0 @.#.C.*XG.1 o                                                       ",
"                                            X C Z k & A.A.A.D.7.q.q.X.X.G.j .                                                   ",
"                                        . 6 B C C & p.A.J.K.J.6.q w.w.O.X.+.o..                                                 ",
"                                      . > 7 M V C o.# 8.M : D & C.M.m.e.9.| ) 9..                                               ",
"                                    X 6 6 6 6 B Z S 8.8.9.e.m.C.C.M.w.w.O.....o.)                                               ",
"                                    6 6 > 7 7 p V Z S o.X.$.#.m.m.m.w.w.9.....Z V $                                             ",
"                                  9 1 6 6 > 6 0 p C C  ...8.q.w.w.w.w.9.X.X. .o._ V                                             ",
"                      I           O 6 6 6 9 6 6 7 5 Z S 2 . . M Z.S.O.$.X... .S.p w X                                           ",
"                      J I .       . 6 6 6 1 6 6 7 w 9 I E.E.^.&.T + o | G.Z.0 + 1.&.$                                           ",
"                      I + I T.J . . > 8 < 6 6 6 6 1 l I ].U.Q.~.{.P.(.z o s I.E.u.<.;                                           ",
"                      t o + K K I ;.;.; 7 6 6 6 7 . t.u.y.I.K t.<.~.U. XE.U.P.U.<./.-X                                          ",
"                      . , g r . t ~ R ~.# 6 6 6 6 H P.P.{ E.R./.<.y.U.I.P.Y.P.[.Y.^.U.                                          ",
"                        L U e e e o G E :.1 6 6 $ P [./.T.~.T.|.XXY.^.Y.5.Y.Y.^.~.R.XX                                          ",
"                        f . K L J a u - I . 9 > . -.^.H Q I ` E ~.^.oXW.3.Y.=X~.P Y E                                           ",
"                        + J Y o Y P e i e U > > . (.Y.G n.m . . J &.E.^.d = T.R X $.*X                                          ",
"                          T o U = Y a e e I O 6 a ;.'.f 4X4XfX. V o L L : . L . aX+ 9X                                          ",
"                          . L . I U L E s J . 6 K Q.[.2.3X4Xo . F.:XO o [.2.. ,X6X4 b.                                          ",
"                            o L + P U . = K . 6 Q H  XR.>X4X7XX 8X3X. E.OX-XI.1X5X8X@                                           ",
"                              t R l G Y Y Y . 6 H u. XP.@ :X<X1X;X%.|.{.{.OXU.* ;X;X{                                           ",
"                                . P I U U P 1 6 ! G y.|.Q X | b.@ ;.|.|.|.{./ P.; H H                                           ",
"                                    . t a : 6 6 ! z { T ` y.[ ^ +X@X|.@X{.{.E.W.R.[ ;.                                          ",
"                                      . 2 1 6 6 l ' Q.<.:.|.}.@X@X#X@Xu . {.OXQ.!.I u.          L.                              ",
"                                        . 1 9 6 o ~ ! @X#X@X&X$X#X#X+XOX{.t.{.[.^.Y.o         r.S                               ",
"                                          . > 6 . f ~ W +X&Xk i a.'.$X).4.{ x > P.3.. . . . y v.                                ",
"                                            . 1 6 f f ' [ '.+X&X#X+X+X@XOXQ.Q.^.-.. d.l.k.@ f.2 @                               ",
"                                                X o l ' ' [ [ =.+X&XOXOXOX#X3.! o   v l.0.0.k + 6.x.X                           ",
"                                                    . . ] ~ ] ' T f z ] ~ ~ ] .     c . + ; . k c.s.uXz..                       ",
"                                                . d d i o # + = u T x a O .         . k . b @ b h.5 c.dX.                       ",
"                                                7.=.>.X w ,.i.i.a.) .               : 5 M & . rXwX0XiXtX.                       ",
"                                              s 5 sX{ X M x 5.!._.Z.5             o @.0 X # tXrXrXqXiXdX                        ",
"                                            . >.o # 1.. 9.i.j OXp.M..             # X X k s.0XeXeXpXuX.                         ",
"                                            a *.. s -.. C.).!.t.}.X., +           G..     s.s.0XeXiXh.                          ",
"                                            d >.. d W . S.W.!.e '.8.a.<.4       H.X       . d.s.iXsX                            ",
"                                          , s =.. z 3.. q.W.i `.F.Z 1 ,.*.=.[ S.B           v j.yX                              ",
"                                          d *.*.$ 6 A $ 7 % p #.2XD V g R ,.{ .             X x.                                ",
"                                        . s *.=.: 8 k p * B F O.e.* Z O ! . ,.z                                                 ",
"                                        . s >.*.. 7 8 0 t n B V n j q   : ! . .                                                 ",
"                                          . d *.. 3 % 7 > 6 i p 0 p N   & s #                                                   ",
"                                              . 1 0 Z #.B . $ 7 ( e.o.X B.                                                      ",
"                                                . 6 Z ..Z   1 7 e.A.> A .                                                       ",
"                                                d t d u .   . s z e 4.                                                          ",
"                                                s h 1.3..   . s >.3.>.                                                          ",
"                                                d s T ` h   , , = - ,.                                                          ",
"                                              . d i s *.,.  r d r 9 2 O                                                         ",
"                                                  . . + .     . . . .                                                           ",
"                                                                                                                                ",
"                                                                                                                                ",
"                                                                                                                                ",
"                                                                                                                                ",
"                                                                                                                                ",
"                                                                                                                                ",
"                                                                                                                                ",
"                                                                                                                                ",
"                                                                                                                                "
};
