/* XPM */
static char *_d87a2046b8c4a229a1d413382f3d134eopQUnt2F36iPntX[] = {
/* columns rows colors chars-per-pixel */
"64 64 206 2 ",
"   c #151812",
".  c #191A17",
"X  c #1D1D1B",
"o  c #201F1D",
"O  c #1E211B",
"+  c #21241E",
"@  c #3B2715",
"#  c #383718",
"$  c #252522",
"%  c #282724",
"&  c #272B23",
"*  c #292B26",
"=  c #2D2D2A",
"-  c #302F2D",
";  c #2C3427",
":  c #32322E",
">  c #34392D",
",  c #363533",
"<  c #383734",
"1  c #363D33",
"2  c #3A3A35",
"3  c #3D3D3A",
"4  c #472F19",
"5  c #493927",
"6  c #503822",
"7  c #403F3C",
"8  c #3B5B1D",
"9  c #3F651E",
"0  c #39472C",
"q  c #3C4C2B",
"w  c #3A5224",
"e  c #3F5C23",
"r  c #3C4334",
"t  c #3D4A34",
"y  c #3E433A",
"u  c #48491F",
"i  c #416E1F",
"p  c #474829",
"a  c #455B26",
"s  c #455D2B",
"d  c #54562D",
"f  c #474837",
"g  c #42423E",
"h  c #434B3D",
"j  c #455435",
"k  c #465B31",
"l  c #49573B",
"z  c #525A38",
"x  c #456923",
"c  c #476628",
"v  c #56692E",
"b  c #4C7226",
"n  c #4B7328",
"m  c #55752C",
"M  c #517A29",
"N  c #4E6533",
"B  c #4C6734",
"V  c #566837",
"C  c #556D3E",
"Z  c #547433",
"A  c #5A7D34",
"S  c #597438",
"D  c #5B7A3A",
"F  c #454542",
"G  c #484743",
"H  c #464943",
"J  c #4A4A46",
"K  c #4D4D4A",
"L  c #504F4B",
"P  c #475343",
"I  c #4B5344",
"U  c #4C5B45",
"Y  c #4E534B",
"T  c #4E594B",
"R  c #575947",
"E  c #52524D",
"W  c #535A4C",
"Q  c #555552",
"!  c #585753",
"~  c #565B52",
"^  c #5B5A55",
"/  c #5D5D59",
"(  c #605F5B",
")  c #576946",
"_  c #55624A",
"`  c #5B644E",
"'  c #5D7645",
"]  c #556254",
"[  c #5A6353",
"{  c #5B6956",
"}  c #5E6259",
"|  c #5E6B5D",
" . c #5E7355",
".. c #64774A",
"X. c #627A49",
"o. c #63625D",
"O. c #69665D",
"+. c #66695B",
"@. c #636B5C",
"#. c #6C7056",
"$. c #64745B",
"%. c #687758",
"&. c #656561",
"*. c #686762",
"=. c #666B62",
"-. c #6B6A65",
";. c #6D6D69",
":. c #716C66",
">. c #706F6A",
",. c #6C7465",
"<. c #6C7864",
"1. c #6E726A",
"2. c #737365",
"3. c #73726D",
"4. c #78776A",
"5. c #747B6D",
"6. c #787B6E",
"7. c #767571",
"8. c #787772",
"9. c #767B72",
"0. c #7B7A75",
"q. c #7E7D79",
"w. c #807C75",
"e. c #807E7A",
"r. c #57852C",
"t. c #559127",
"y. c #5C8535",
"u. c #63873D",
"i. c #669538",
"p. c #6CAA36",
"a. c #72A93D",
"s. c #698849",
"d. c #6D9642",
"f. c #719E45",
"g. c #759A4F",
"h. c #6D8453",
"j. c #72875B",
"k. c #75AB41",
"l. c #7CA655",
"z. c #6E8364",
"x. c #77826E",
"c. c #7F9C61",
"v. c #798573",
"b. c #7B8274",
"n. c #7E827A",
"m. c #84AD5C",
"M. c #86B559",
"N. c #8DBD5D",
"B. c #819769",
"V. c #86877B",
"C. c #83827D",
"Z. c #838A7C",
"A. c #829276",
"S. c #87A666",
"D. c #91C85E",
"F. c #95C664",
"G. c #868581",
"H. c #888682",
"J. c #868A82",
"K. c #8B8A85",
"L. c #8E8D89",
"P. c #918E86",
"I. c #908F8A",
"U. c #8B9284",
"Y. c #8C9885",
"T. c #8D9289",
"R. c #93928D",
"E. c #949B8D",
"W. c #969591",
"Q. c #989792",
"!. c #969A92",
"~. c #9B9A95",
"^. c #9E9D99",
"/. c #9E9D9A",
"(. c #A39E96",
"). c #A09F9A",
"_. c #96A68E",
"`. c #9CA294",
"'. c #9DA39A",
"]. c #A3A29D",
"[. c #A4AA9D",
"{. c #A6A5A1",
"}. c #A6A5A2",
"|. c #A8A7A2",
" X c #A5AAA1",
".X c #ABAAA5",
"XX c #AEADA9",
"oX c #B0AEA7",
"OX c #B0AFAA",
"+X c #ACB1A6",
"@X c #AEB2AA",
"#X c #B2B1AD",
"$X c #B4B9AE",
"%X c #B5B5B1",
"&X c #B9B7B3",
"*X c #B7BBB4",
"=X c #BABAB6",
"-X c #BEBDBA",
";X c #C0BFBB",
":X c #BDC1BA",
">X c #C3C2BE",
",X c #C6C5C2",
"<X c #CACAC5",
"1X c #C9CAC6",
"2X c #D1D0CD",
"3X c #D1D2CD",
/* pixels */
").R.].oX#X#X(.V.%XoXXX%XoX).R.R.!.'.].$X:X[.].T.}.!.W.%X-X.XQ.I.0.K.C.8.H.~.I.0.P.P.K.>.e.I.:.f q.8.K.L.}.}.=X{.{.^.OX&X/././.W.",
"e.8.Q.P.e.e.*.L oXw.e.>.>.( / O.} 5.U.~.E.E.6.I V.&.7.q.e.0.;.-.>.J ! J / ;.;.-.( ( ( L E K K 7 >.L G ! 8.Q.^.L.}.}.^.^.L.H.G.;.",
"I.C.V.8.3.( ( J oXe.e.>.>.8.C.9.b.`. X@X X`.V.Y ;.! o.3.8.:.>.>.H.! L K Q ;.3.^ Q -.&./ J ! ^ g e.J F L G.}.W.R.-X&X^.H.8.K.q.( ",
"~.I.7.:.( ( ( E XXw.e.>.C.Q.R.[.!.~.R.Q.!.P.C.I 7.! ^ 3.0.3.8.V.~.-./ / ^ 2.-.o.o.-.&.( ! ( ! , -.J L -.q.}.}.I.}.I.G.q.7.G.7.( ",
"I.q.;.! K >.*.;.OXG.q.e.H.P.'.-X%X}.W.C.G.e.w.K 9.L ! ;.0.2.0.0.}.;.( o.o.-./ o.( >.-.o.o.! E - >.J o.&.3.Q.^.0.}.G.8.&.>.>.0.7.",
"~.0.>.^ L ;.G.*.OXG.e.q.0.e.}.#XXXXX^.G.0.7.w.G 0.o.*.>.7.0.K.:.!.*./ o.^ o.*./ ! o.*.o.o.^ ! : e.*.( ^ 0.).L.8.}.H.;.7 K o.7.e.",
"K.>.&.( o.o.7.( OXe.W.G.G.G.I.K.~.W.I.8.7.7.G.! L.3.0.3.0.C.R.-.V.^ ( R E / ! G L ( &.&./ L L , Q.H.7.8.e.).{.L.].C.! - < ( 0.7.",
";.L Q ( o.! &.Q XX>.e.q.-.;.-.( &.Q o.^ ! *.7.( ^.L.L.w.>.8.K.;.e.K K 7 3 g g 2 7 g K K g g 7 3 R.K.Q.L.K.Q.).L.^.0.Q < < 7 Q ^ ",
"Q F F ;.G.;.;.7.W.Q.W.R.L.L.0./ .XQ.}.{.}.XX=X<X2X2X2X<X=X;X;X[.{.P.H.e.w.e.C.e.OX).oX|.(.(.}..XXX&X<X,X,X&X;X,X%XL.q.&.&.( q.q.",
"K X - F Q Q Q K / ^ Q ^ Q K F , ].! o.;.0.L.).OX&XoXoX(.V.K.V.! H.>.>.:.( R E ( {.! ( O.>.( 0.w.8.G.W.L.G.H.L.;.^.-.&.! L 3 F F ",
"Q = 3 3 Q Q / Q J Q Q / K F 3 , {.&.&.0.q.G.}.&XXX(.P.e.>.w.H.( W.0.V.I.( L K E (.L F ! >.4.3.e.q.8.>.7.7.G.Q.&.I.;.&.>.H.8.! K ",
";.3 K Q Q Q K K F L / &.Q F g , }.>.&.G.W.W.{.OX(.C.3.3.( &.4.o.~.G.V.I.P.>.( ! (.7 7 ! *.e.e.w.>.&.! ;.G.G.L.Q W.;.>.W.Q.W.H.&.",
"G./ Q K Q Q K F F K ;.&./ F 3 , }.-.3.0.P.Q.R.oXR.H.:.-.O.o.:.^ I.8.7.]..XW.8.! (.G G ! 3.e.R.P.w.&.*.q.G.q.7./ q.&.G.}./.#X/.G.",
"q./ / / Q Q / F 3 K &.&.Q F 3 - {.-.e.G.P.e.R.(.R.e.3.*.! E E K G.:.3.).;X}.w.&.|.( ! ! e.P.W.R.e.G.L.I.W.7.8.K 7.q.L./.}.XX/.;.",
"G.Q Q Q / K Q F F F / / K g 3 = XX0.H.e.w.w.V.P.H.w.:.! f L ! g 7.^ ! W.%X#X).8.%X:.:.:.e.P.W.W.}.).Q.)./.G.7.K G.;.q.L.XX#XXXq.",
"G.F K K K F F F 3 F K K F g 3 < (.( >.( ! &.w.O.( ( R 7 = = 3 - ;.7 E w.).%X.X3.{.( ! ( ( 7.>.8.H.I.G.e.G.7.&.F G./ &.;.Q.&X&XL.",
",XW.W.W.G.q.G.G.#XXX=X-XXX}.}.^.].}.*X{.}.%XOX~.G.9.*.H h G L 7 F K &.G.}.%X}.G.}.W.G.G.L.}./.^.XXOX}.XX%X/.W.q.;.7.&.;.L.}.,X%X",
"}.7.;.&.;./ / ;.=XK.^.W.H.8.;.&.1.| &.=.n.G.T.=.!.&.E 3 * = * $ X $ F Q &.;.&.F L.;.7.;.q.q.G.q.^.>.;.( &.;.;.L Q K F F Q Q &.Q ",
"W./ K Q ;.;.;.;.;XQ.^.L.q.;.-.~ ] T ] 9.U.T.~.n.#X} K 3 = : 3 g - = F K / Q K F W.7.;.&.7.q.G.7.W.;./ L Q / / Q F F Q / Q F Q 3 ",
"W.&.K K &.;.q.7.<X^.].W.L.-.Q / / Y | 9.J. X Xb.@X~ H H f F J ( Q F F F F K Q F L.Q Q / ;.;.q.G.^.&./ L Q Q Q K F Q &.&.&.Q K 3 ",
"W.&.^ Q / ;.;.G.,X}.}.].Q.w., Q y / 9.9.'.+X*X9.R.H y K Q K Q -.Q Q K F F F K 3 &.3 , / &.7.G.W.^.Q Q K F F 7 K F K Q / ;.;.Q F ",
"R.&.Q K Q &.q.;.;XQ..X%X).|.0.o.] =.n.!.`.+XXX| n.K K Q J J / ;./ / Q K = - 3 , ;.F K / q.G.W.q.G.Q L F - - 3 F F F K &./ &.&.F ",
"G.&.;.&.Q Q 7.7.>X)..XXXQ.R.G.e.7.G.T.!.!.-XXX} ;.K K K 3 3 K / &./ / 3 $ $ 3 , q./ / &.q.q.W.G.G.L 3 - o - 3 F F K K Q / Q Q 3 ",
"G./ ;.7.&.&.7.7.&XH.L.e.3.&.*.&./ =.7.9.9.L.9.Y -.3 3 3 < - 2 L Q F F - $ = , F G.&./ &./ &.q.G.L.F < - o % , 3 F F F F 3 - , , ",
";X&X#X%XXX|.OX;X;X,X;X;X%X).).Q.7.-.7.J.^..XT.L.G.n.1.-./ F >.q./.L.L.G.;.;.G./.L.L.7.&./ 7.}.%XL.C.>.3.! L ( :.}.W.L.G.L.q.G.G.",
"&XL.L.W.G.C.7.G.W.L.w.I.e.e.o.< / * 3 Q 1.1.| ;./ Q E g , = 3 2 W.;./ ;./ / ;.L.L.K F 3 F &.q.q.;./ L Q G g K J W.7.7.7.q.&.&.;.",
"OXG.W.Q.K.L.e.G.G.e.&.e.e.7.&.7 Q $ : K } 9.n.1.^ K K J 3 - 3 3 W.7.7.q.;.q.q.L.}.K F 3 K ;.q.7.>./ K L L Q E J W.q.q.G.q.&./ Q ",
"}.q.W.Q.R.W.L.G.q.7.&.:.e.-.L = H + $ 3 ^ 7.9.;.^ J 3 F 7 3 7 J }./.L.G.L.W.L.G.W.K 3 K &.;.q.&.&.! J E L L ! J /.7.q.L.G.;./ , ",
"XXL.W.^.W.C.C.G.H.G.&.*.G.;.L % Y % = F / =.=.^ E J K K E K F K %X}.}./.}././.q.L.K K K L ;.;.} ^ L F / E E L G L.w.W.I.G.>.Q < ",
"#XH.W.L.q.;.7.G.I.e.w.w.L.w.&.o F = 3 J ! &.^ Q E K / Q g 3 H J %X%X-X%X-X/.G.q.L.Q K F Q o./ Q ! 3 2 ^ ( ( ! 7 G.w.Q.XX/.H.&.7 ",
"%XL.L.G.q.7.-.>.7.7.G.w.L.K.( . J , J } ;.=.o.K E K ^ E F E Q K XXW./.XX-X/.q./ ;.J K J Q Q K 3 y r J T ! ( ! F I.w.K././.W.8.o.",
"}.;.;.&.;.-.^ F K / *.! ( *.J % 3 = 3 K &./ ! J 3 3 F g F K Q g G.&.7.q.W.L.;.K / g F K K F : * ; , , h ! E G 7 I.:.:.e.I.G.8.&.",
"Q.Q.R.H.W.].).H.;XOXOX(.|.OX~.G.G.L./.].%X=X,X}.G.G.~.^.G.G.C.C.7.7.q.W.W.W.q.Q W.L.G.W.W.q.;.&.^.!.!.@X$X[.(.(.+X+XoX;X<X;XoXI.",
"e.-.w.:.H.W.~.P.=XP.K.>.0.7.7.3./ / K &.q.^.}.;.W.7.;.;.&./ / L F Q ;./ Q Q F = q.;.7.&.&.K K ] '.9.J.'.E.E.4.x.6.4.V.P.P.V.7.Q ",
"R.8.3.:.w.~.(.w.&X(.W.V.>.e.C.e.&.L K / L.XXQ.;.*Xq.;.o.^ &.^ J K / / Q Q F 3 = q.7.;.q.7.;.7.=.@X`. X@X[.].Z.6.( O.2.e.e.8.w.! ",
"|.W.e.V.e.(.(.e.;X~.W.P.e.K.0.( L F.K ;.G.XXXX7.^.-./ ^ Q / E H / ;.Q K 3 3 3 - G.;.;.&.q.L.L.L.,X!.!.'.].R.Z.6.+.O.*.e.H.w.w.O.",
"#X(.V.P.P.W.V.w.;X].(.P.L.<.S w K H o.;.7.^.}./ ~./ Q F L L ^ ^ Q Q K 3 , K F 3 G.q.7.7.G.G.!.}.3X X!.C.J.Z.C.4.O.^ O.8.V.w.e.O.",
"].W.G.P.e.H.W.3.&XK.W.P.L.0.o.y.y.i./ / q.}.L.&.^.&.K - < F L -./ / Y 3 , K / 3 G.q.;.7.7.7.}.^.3X#X].G.q.8.C.:.*.:.>.w.e.e.P.( ",
"R.e.H.w.8.V.8.( W.j.2.s.:.O.m.p r.! ;.8.G.}.}.7.W./ 3 o % F ^ / Q Q F 3 F F K 3 G.;.L.q.q.q.L.7.,XQ.R.0.7.0.G.e.w.0.e.w.G.V.Q.Q ",
"H.*.*.( Q O.( f V.u.Q i.D.v f v u.W l.;.;.q.G.;.L.K , $ o = , 7 - - - ] K 3 3 - G.;.q.q.;.;.;./ ^.E / Q E ( -.3.4.0.0.*.( &.7.Q ",
";X(.(.Q.I.W.~.G.2.s.Z.a.O.e.7.D K.K.k.}.-X%X=X<X&X].R.q.e.0.L.q.7.] t k G.q.( C.R.R.R.K.G.G.7./ &./ ;.;.;.7.L.W.,X-X-X#X).}.}.R.",
"OX8.8.>.( ( ( ! a N.p l.~ ^ >.p Z } j.6.8.e.R.].W.7.;.o.! F K - h.y t Y 0.8.-.-.I.^ Q ^ Q J F F 3 , 3 F K / &./ >X}.}.W.e.C.e.>.",
"&Xe.H.R.*.! L ( A a.g f m V 5 b p s.^ ) ..q.Q.L.q.7.>.7.L.0./ a x t B B.A.C.K.;.7.Q Q / K F 3 F 3 3 3 K K / ;./ %XW.G.0.*.8.G.8.",
"&XP.H.Q.R.4.( ( g < 2 Q ^ D O.J :...6 V ^ e.J.A.7.3.0.~.^.^.K.7 k.s P ] &.8.;.-.7.K / &.Q F g F F F F Q o.o.;.^ }.8.&.&.! ^ :.8.",
"%Xq.q.}.oXW.0.&.! F f Q C >.V.( XX^ E l D v ^ N.I -.L.OX{.%X].o.=.a _ u.} q.^ ^ ;.Q ;.&.^ F 3 F F F F K / ( / ^ ^.0.^ / ! E *.3.",
"XX7.8.].;X.Xe.7.o.( ^ ^ e.K.R.O.&XC.0.j.y.s E y.S 0.W.)..XOXc.Q g.q n p } q.C.Q &.F ( -.Q F 3 3 3 F Q Q / Q / E ^.>.&.( K H G o.",
"].o.o.Q.&X%X).K.8.:.:.O.e.R.W.-.<X^.V.G.h.c x w 0 >.H.Q.OX%XS.Z 7.d B A 3.7.q.k c.l./ / L g 3 < F K / Q L E ! F W.-.! J , g G E ",
"e.< G ;.K.Q.I.-.( E ! ( ( :.*.^ &XV.c.r.k h.y.B J J Q ( G.).L.%.&.c h o.-.! j 0  .; H H F 3 3 3 3 F K 3 3 7 K < q.Q J 3 = = 3 7 ",
"7.o.7.W.OX-X%X).H.8.;.&.>.L.G.L.}.{.L.Z.W.n.y.g }.).R.^.OX,X>X%X).6 K.V.L.M.O.+.i.X.W.}.R.K.C.w.XX^.}.).'.}.}.'.^.!.L.0.7.0.C./ ",
"E < / 0.L.W.W.8.G.L L L / / / / -.;.=./ &.' i.@ {.S.&.>.C.K.~.).W.` V j E C ) a M j G.I.H.3.O.~ }.| &.;.q.G.T.T.T.L.7.Q 7 F g $ ",
"&.7 o.>.G.q.3.>.H.Q K K Q ^ / / &.&./ W l # D D #.E 7.K.0.>.8.7.q.! u y.f.b o.J y.O.I.K.8.O.+.] '.T / 9.T.T.^.@X.XJ.;./ F K / 3 ",
"L.( o./ &.;.8.;.q.7 3 7 L L / o.-.&.^ B t z g.m.p a.7.K.G.;.-.F.*...i.f M I 3.^ (.R.).R.V.O.W Y }.T | 9.J. X X@X.XG.&.=.o.o.;./ ",
"Q.8.;.-./ -.;.o.Q = $ g K L o.;.-.~ E Z x w e q V.u.g.D ` #.2.2.B./ ^ E d ( 8.-..X[.|.(.R.4.o.G T.| 9.v.'.@X*X XT.1.o.;.q.7.q.;.",
"(.e.7.-.3 F ! Q / - , g Q / ;.&.Q Y j 0 & e p.c P.N.m R >.M b m 2.&.R E 6 :.V.o.].R.|.#X^.K.4.K '.=.J.!.`..X@X!.q.1.1.q.;.1.G.;.",
").C.H.! - , K ^ ;.F 3 J Q ^ ;.&.~ ' : B . 8 M $ B.Q D v 5 A y.L -.3.c v d.R 4.( }.(.|.oXR.P.V.-.%XJ.R.!.!.:X@XJ.-.;.7.>.&./ 7./ ",
"L.&.o.7 , 3 K / 7.1 2 3 3 1 F K h 2 ' $ X X s * L.E ) l r > a.> E K E k.%.g ..Q ~.P.I.K.0.:.:.o.T.&.;.7.9.G.1.~ K L K K F < K / ",
"%X^.!.W.q.Z.E.+X}.XX^.R.J.W.-X%X:X'.J.W.v.0.G.R.].^.W.L.R.0.M.a 3.x.6.4 l.+.<.A.[.[.~.Q.K.-.;.0.;.@.1.J.!.'.J.9.^.L.q.8.;.! n.T.",
"%X1._ 1.&.o.3.~.J.q.;./ | L.*X9.,Xv.1.9._ [  .n.5.9.7.9.n...W n C v c 6 7.,.O.7.(.+.R &.! ! r 2 2 & r ] ,.,.] P !.,.$.T H 3 ! &.",
"%Xn.5.C.3.n.q.'.!.n.| | ,.'.%X0.>Xn. .<.9.9.7.v.v.5.9.J.q.-.| 1 @.i z p.i.,.D.o.K.^ g W T J f > : + , t ] 3.0.Q T.| &.-.Q h ! &.",
",X^.T.J.R.Y.T.!.T.9.] 1.T.'. X&.:Xn.=.3.1.7.0.n.x.5.b.L.n.' _ q ' s i 9 8 _ %.5 C.E h g T h ; & + + + 3 ~ 1.1.Q W.} K &.^ E / 9.",
"<XXX X`..X X].E.J.5.3.9.n._.'.| *X9.{ Z.9.1.<.9.1.v.T.J.Z._ k w 9.x.C t.# l.a.q Z.E t r ^ y ; * ; + * y W | &.h C.@.-.-.;.-.@.C.",
"<X*X=X*X*X_.J.A.J.J.5.=.n.v.n.I @X] R v.Z.v.9.,.=.<.!..X_.l.) & A.C.6.W l.m x h L.T I l @.Y r O + & 2 t P ] T y J.;.n.9.o.^ O.,.",
",X'..X%X-X].Z.1.=.<.5. .0.Z.<.r _.]  .z.z.J.x.1.,.1.n._.Y.v.%.h H.H.b.$.] u t.C =.l ^ I ~ / y   O ; H W | ] ~ 1 K.@.x.2.o.3.9.6.",
"!.W &.-.9.<._ t y W T } ] Y y ; <.0 y B  .{ U ] ] T T | 5.=.` h b.@.@.*.@...S ; B r h 3 t h ; O O & > H T U P > 1.P [ U @.@.0.} "
};
